<svg xmlns="http://www.w3.org/2000/svg" viewBox="0 0 40 26"><path fill="#016FD0" d="M0 26h40V0H0v26z"/><path fill="#fff" fill-rule="evenodd" d="M30.69 13.63v1.64h-4.17v1.14h4.07v1.64h-4.07v1.12h4.17v1.66l3.38-3.6-3.38-3.6zm-1.1-6.14-1.4-3.19h-4l-4.1 9.32h3.33v8.27l10.28.01 1.61-1.8 1.63 1.8H40v-2.63l-1.92-2.06L40 15.16v-2.59l-1.93.01V7.6l-1.81 4.98H34.5l-1.86-5v5h-4.2l-.6-1.46h-3.3l-.6 1.46h-2.22l3.23-7.27V5.3h2.55l3.19 7.21V5.3l3.1.01 1.6 4.47 1.62-4.48H40v-1h-3.77l-.85 2.39-.85-2.39h-4.94v3.19zm-5.06 6.11v7.27h6.16v-.01h2.54l2.1-2.32 2.12 2.32H40v-.1l-3.34-3.53L40 13.65v-.05h-2.52l-2.1 2.3-2.08-2.3h-8.77zm.7-4.11.96-2.31.97 2.31h-1.93z"/></svg>