<svg xmlns="http://www.w3.org/2000/svg" width="40" height="26" fill="none" viewBox="0 0 40 26"><path fill="#fff" d="M0 0h40v26H0z"/><path fill="#1434CB" d="m15.9 7.7-4.43 10.6h-2.9l-2.2-8.47c-.13-.52-.25-.71-.65-.93C5.05 8.55 3.96 8.2 3 8l.07-.32h4.67c.6 0 1.13.4 1.27 1.09l1.15 6.14 2.86-7.23h2.89Zm11.39 7.15c0-2.8-3.88-2.96-3.85-4.21 0-.38.37-.79 1.16-.9a5.2 5.2 0 0 1 2.71.48l.48-2.25a7.4 7.4 0 0 0-2.57-.47c-2.71 0-4.62 1.44-4.64 3.51-.02 1.53 1.36 2.38 2.4 2.9 1.08.51 1.44.85 1.43 1.31 0 .71-.85 1.03-1.64 1.04-1.39.02-2.19-.37-2.82-.67l-.5 2.33c.64.29 1.82.55 3.05.56 2.89 0 4.78-1.42 4.79-3.63Zm7.17 3.46H37L34.78 7.7h-2.34c-.53 0-.98.3-1.17.78l-4.12 9.84h2.88l.57-1.58h3.53l.33 1.58Zm-3.07-3.76 1.45-3.99.83 4H31.4ZM19.83 7.7l-2.27 10.62h-2.74L17.09 7.7h2.74Z"/></svg>